<?xml version="1.0" encoding="utf-8"?>
<!-- Generator: Adobe Illustrator 16.0.3, SVG Export Plug-In . SVG Version: 6.00 Build 0)  -->
<!DOCTYPE svg PUBLIC "-//W3C//DTD SVG 1.1//EN" "http://www.w3.org/Graphics/SVG/1.1/DTD/svg11.dtd">
<svg version="1.1" xmlns="http://www.w3.org/2000/svg" xmlns:xlink="http://www.w3.org/1999/xlink" x="0px" y="0px" width="263px"
	 height="170px" viewBox="0 0 263 170" enable-background="new 0 0 263 170" xml:space="preserve">
<g id="_x5F_guide">
</g>
<g id="guides">
</g>
<g id="_x5F_work" display="none">
</g>
<g id="outline">
</g>
<g id="outline_x5F_white" display="none">
</g>
<g id="logo">
	<g>
		<path d="M230.717,5.507c-2.598,0-5.416,3.575-7.102,5.711c-0.227,0.288-0.428,0.542-0.598,0.748
			c-9.1,11.089-15.447,24.41-17.877,37.51c-0.912,4.923-1.152,9.769-0.715,14.402c0.32,3.418,0.859,9.137,4.418,11.704
			c1.234,0.888,2.639,1.337,4.178,1.337c2.77,0,5.854-1.521,8.248-4.067c2.27-2.412,3.533-5.357,3.381-7.881l-0.025-0.439
			l-0.439-0.029c-1.102-0.074-2.197,0.452-3.252,0.959c-0.543,0.26-1.057,0.505-1.531,0.651c-0.996,0.307-2.297,0.659-3.52,0.659
			c-1.621,0-2.775-0.635-3.529-1.939c-1.955-3.402-1.209-8.155-0.609-11.975l0.111-0.706c2.09-13.499,8.211-26.108,17.24-35.504
			c0.24-0.251,0.521-0.526,0.822-0.823c2.096-2.066,5.264-5.189,3.631-8.273C232.83,6.195,231.877,5.507,230.717,5.507z"/>
		<path d="M201.4,60.26c-0.318-0.217-0.629-0.327-0.924-0.327c-1.008,0-1.412,1.157-1.705,2.002
			c-0.07,0.204-0.139,0.396-0.207,0.554c-1.271,2.865-4.994,7.983-7.881,7.982l-0.115-0.002c-0.965-0.047-1.676-0.412-2.17-1.116
			c-1.914-2.725-0.074-9.455,0.537-11.452c1.686-5.51,3.76-10.76,5.998-15.184c2.395-4.715,5.672-10.851,9.773-16.495
			c0.82-1.13,1.713-2.272,2.574-3.377c2.703-3.465,5.498-7.046,6.977-11.243c1.098-3.096,0.623-5.182-1.414-6.201
			c-0.264-0.135-0.555-0.201-0.865-0.201c-2.246,0-5.113,3.497-7.879,7.278c-0.246,0.336-0.451,0.615-0.602,0.81
			c-3.244,4.19-5.99,8.813-8.67,13.323c-2.477,4.156-4.602,8.698-6.564,12.992c-3.4,7.418-5.635,14.177-7.035,21.273
			c-0.818,4.174-1.389,9.497,1.498,13.655c1.369,1.976,3.395,3.019,5.855,3.019l0,0c4.449,0,9.178-3.39,11.01-6.53
			c1.334-2.287,2.213-4.776,2.473-7.016l0.027-0.245C202.215,62.712,202.42,60.958,201.4,60.26z"/>
		<path d="M177.594,52.838c-1.635,1.599-2.814,3.599-3.953,5.531c-0.643,1.087-1.305,2.212-2.033,3.231
			c-3.209,4.485-8.287,9.833-14.266,9.833c-0.637,0-1.277-0.063-1.906-0.187c-1.771-0.354-3.813-1.539-5.076-2.952
			c-3.934-4.378-1.693-11.388-0.006-15.175c2.715-6.067,5.666-10.167,9.281-12.9c1.256-0.953,5.449-3.673,8.131-3.673
			c0.586,0,1.049,0.137,1.375,0.402c2.305,1.891-0.502,6.357-1.852,8.504l-0.182,0.289c-2.336,3.712-5.525,6.613-9.748,8.872
			c-0.164,0.088-0.477,0.226-0.867,0.399c-3.17,1.406-4.865,2.379-4.75,3.495c0.088,0.829,1.119,1.141,1.885,1.303
			c0.4,0.085,0.836,0.129,1.293,0.129c3.529,0,7.92-2.458,11.746-4.862c3.887-2.43,9.838-9.021,10.273-15.452
			c0.209-3.085-0.885-5.646-3.25-7.615c-1.639-1.359-3.621-2.049-5.889-2.049c-3.938,0-7.654,2.059-9.521,3.284
			c-10.57,6.951-15.813,15.845-16.498,27.987c-0.387,6.897,4.441,13.751,10.764,15.278c1.416,0.34,2.889,0.514,4.379,0.514
			c7.938,0,15.988-4.851,20.037-12.07c1.506-2.688,2.441-5.475,2.785-8.277c0.125-0.97,0.342-3.312-0.35-4.099
			C178.973,52.094,178.303,52.143,177.594,52.838z"/>
		<path d="M130.311,41.377l0.404-1.18c0.547-0.006,1.088-0.006,1.625-0.006c0.443,0.004,0.91,0.026,1.389,0.048
			c0.57,0.027,1.156,0.055,1.74,0.055c1.393,0,3.168-0.139,4.57-1.217c0.943-0.732,1.383-1.783,1.201-2.882
			c-0.193-1.175-1.063-2.164-2.273-2.584c-1.668-0.572-3.531-0.84-5.867-0.844c0.508-1.563,1.115-3.322,1.867-5.029
			c0.598-1.349,1.467-3.84,0.588-5.372c-0.396-0.692-1.078-1.098-2.021-1.203c-0.893-0.109-2.166,0.502-2.785,1.098
			c-2.953,2.876-4.145,6.798-5.064,10.612c-0.297-0.006-0.592-0.012-0.889-0.012c-1.619,0-3.465,0.125-4.863,1.043
			c-1.313,0.852-2.322,2.906-1.707,4.383c0.832,1.974,3.051,1.974,4.375,1.974l0.631-0.002l0.32,0.002
			c0.104,0.004,0.205,0.006,0.309,0.008l-0.295,1.122c-2.42,9.158-5.164,19.539-2.371,28.84c0.678,2.285,2.465,5.205,4.568,6.363
			c1.244,0.69,2.586,1.041,3.988,1.041c2.625,0,5.295-1.249,7.324-3.427c1.271-1.369,2.227-3.051,3-5.297
			c0.582-1.696,0.691-2.773,0.342-3.391c-0.297-0.518-0.666-0.781-1.094-0.781c-0.813,0-1.396,0.991-1.863,1.788
			c-0.137,0.23-0.254,0.436-0.35,0.557c-0.863,1.062-2.592,2.227-3.994,2.336c-0.189,0.015-0.381,0.022-0.57,0.022
			c-2.211,0-4.055-0.896-4.932-2.397c-1.738-2.942-1.592-7.125-1.33-10.017C126.766,51.704,128.568,46.453,130.311,41.377z"/>
		<path d="M96.898,26.157c3.58,0,6.49-2.915,6.49-6.497s-2.91-6.497-6.49-6.497c-3.578,0-6.488,2.915-6.488,6.497
			S93.32,26.157,96.898,26.157z"/>
		<path d="M62.377,56.878c0.563,3.769,2.354,7.267,5.326,10.396c2.492,2.622,6.258,6.585,10.094,7.634
			c0.453,0.124,0.895,0.188,1.316,0.188c1.346,0,2.469-0.661,3.01-1.771c0.611-1.26,0.363-2.845-0.645-4.132
			c-0.883-1.145-2.453-2.025-3.973-2.879c-0.766-0.431-1.488-0.836-2.053-1.241c-2.463-1.759-5.768-4.565-6.043-8.631
			c-0.311-4.851,3.256-9.319,4.803-11.016c1.809-1.982,4.09-3.818,6.781-5.458c0.211-0.13,0.457-0.269,0.723-0.42
			c1.936-1.104,4.863-2.771,4.131-5.343c-0.375-1.308-1.252-1.997-2.537-1.997c-1.895,0-4.781,1.56-8.582,4.635
			C69.611,40.975,61.041,47.89,62.377,56.878z"/>
		<path d="M56.773,78.524c0.924,2.135,2.809,4.289,4.938,4.289c0.979,0,1.896-0.45,2.732-1.337c1.646-1.741,0.875-3.495,0.193-5.042
			c-0.174-0.396-0.35-0.791-0.482-1.188c-2.123-6.302-2.982-13.254-2.551-20.662c0.223-3.83,1.32-7.605,2.381-11.259
			c0.205-0.702,0.408-1.405,0.607-2.107c1.344-4.723,2.941-9.285,4.182-12.731l0.629-1.751c1.121-3.123,2.279-6.352,3.623-9.444
			c0.854-1.961,1.691-3.669,2.563-5.222c0.164-0.288,0.346-0.585,0.531-0.887c0.75-1.215,1.598-2.591,1.58-4.095
			c-0.025-1.539-0.998-2.421-2.668-2.421c-1.371,0-3.037,0.593-4.016,1.148c-0.234,0.138-0.445,0.267-0.629,0.399
			c-2.264,1.565-3.502,4.245-4.594,6.608l-0.418,0.896c-2.492,5.279-4.248,10.919-5.945,16.371
			c-0.373,1.199-0.746,2.396-1.127,3.591c-2.125,6.635-3.494,12.51-4.184,17.962C52.758,62.25,53.65,71.294,56.773,78.524z"/>
		<path d="M118.166,55.765c-0.807,0-1.426,0.993-2.148,2.292c-0.15,0.269-0.277,0.5-0.373,0.634
			c-2.023,2.803-4.271,5.619-7.502,6.55c-2.334,0.68-4.201,0.263-5.545-1.255c-2.689-3.037-2.734-9.431-2.338-12.73
			c0.141-1.196,0.346-2.428,0.545-3.618c0.313-1.867,0.635-3.796,0.727-5.694c0.102-2.287,0.207-4.651-0.533-6.925
			c-0.594-1.814-2.289-3.194-4.533-3.69l-0.178-0.039c-0.475-0.107-1.195-0.268-1.838-0.268c-0.52,0-0.904,0.105-1.189,0.326
			c-1.141,0.928-0.596,2.423-0.199,3.514c0.102,0.275,0.195,0.532,0.248,0.748c1.211,5.144,0.508,10.459-0.387,15.907
			c-1.232,7.545-3.26,17.21-8.041,25.029c-2.871,4.707-6.357,9.979-11.398,12.943c-3,1.75-6.305,2.993-8.838,3.323
			c-0.764,0.1-1.549,0.15-2.336,0.15c-4.094,0-8.045-1.34-10.838-3.676c-8.398-7.031-8.748-18.23-8.211-24.28
			c0.205-2.272,0.459-4.479,0.756-6.56c1.523-10.417,4.48-18.508,9.313-25.468c0.477-0.688,0.977-1.565,0.615-2.257
			c-0.348-0.666-1.26-0.757-2.191-0.757c-0.258,0-0.537,0.008-0.836,0.021c-0.313,0.016-0.611,0.02-0.896,0.025
			c-1.543,0.025-2.873,0.047-3.98,1.512c-1.908,2.521-2.848,5.225-3.838,8.088c-0.16,0.461-0.32,0.926-0.486,1.392
			c-0.469,1.316-0.916,2.653-1.361,3.997c-1.578,4.736-3.209,9.633-5.984,13.776c-1.393,2.084-3.75,4.848-7.051,6.182
			c-0.783,0.319-1.666,0.494-2.479,0.494c-0.795,0-1.926-0.166-2.799-0.962c-0.217-0.195-0.402-0.68-0.566-1.107
			c-0.295-0.76-0.627-1.622-1.428-1.622c-0.475,0-0.938,0.314-1.506,1.019c-0.766,0.953-1.219,2.888-1.354,3.782
			c-0.648,4.648,0.396,7.733,3.025,8.921c2.803,1.268,6.271,0.675,10.105-1.73c2.758-1.727,4.83-4.119,6.408-6.291
			c-0.08,2.396,0.047,5.012,0.379,7.942c0.668,5.883,3.061,16.559,11.57,21.946c2.273,1.438,5.096,2.525,7.547,2.91
			c1.678,0.267,3.467,0.408,5.176,0.408c1.293,0,2.531-0.08,3.678-0.236c7.68-1.061,14.934-5.345,20.428-12.063
			c5.238-6.393,8.748-13.002,10.463-19.693c0.402,2.725,1.26,5.635,3.201,7.501c0.715,0.688,1.631,1.038,2.727,1.038
			c2.623,0,5.754-2.06,7.385-3.286c3.063-2.289,5.797-5.642,7.912-9.695c0.031-0.061,2.971-6.184,1.934-7.929
			C118.924,55.964,118.592,55.772,118.166,55.765z"/>
		<path d="M50.93,26.157c3.578,0,6.49-2.915,6.49-6.497s-2.912-6.497-6.49-6.497s-6.49,2.915-6.49,6.497S47.352,26.157,50.93,26.157
			z"/>
	</g>
	<path d="M261.172,167.271c0,0-0.906-0.68-2.601-1.954c-1.694-1.262-4.176-3.192-7.388-5.404c-0.798-0.562-1.638-1.153-2.518-1.773
		c-0.881-0.619-1.786-1.278-2.794-1.896c-2.003-1.249-4.095-2.684-6.37-4.149c-2.327-1.377-4.802-2.843-7.413-4.388
		c-2.687-1.404-5.419-3.019-8.361-4.526c-1.485-0.728-2.999-1.47-4.541-2.227c-0.771-0.378-1.549-0.759-2.334-1.144
		c-0.8-0.348-1.61-0.698-2.427-1.053c-1.637-0.693-3.271-1.455-4.939-2.202c-1.677-0.734-3.426-1.371-5.169-2.075
		c-3.467-1.46-7.161-2.606-10.879-3.895c-0.924-0.338-1.887-0.579-2.84-0.861c-0.951-0.289-1.907-0.58-2.867-0.872
		s-1.923-0.586-2.89-0.881c-0.965-0.311-1.964-0.513-2.949-0.775c-7.859-2.233-16.207-3.486-24.635-4.809
		c-8.467-1.159-17.143-1.599-25.81-1.656c-2.192,0.038-4.382,0.075-6.569,0.112l-1.681,0.028c-0.562,0.007-1.122,0.014-1.643,0.062
		l-3.179,0.216l-3.176,0.211c-1.053,0.062-2.109,0.132-3.182,0.278c-2.135,0.249-4.265,0.497-6.386,0.743
		c-8.43,1.301-16.775,2.571-24.638,4.801c-0.985,0.263-1.984,0.466-2.949,0.775c-0.967,0.296-1.932,0.589-2.89,0.883
		c-0.96,0.289-1.918,0.577-2.869,0.864c-0.953,0.281-1.916,0.523-2.84,0.862c-3.718,1.288-7.412,2.437-10.879,3.896
		c-1.745,0.705-3.492,1.343-5.169,2.076c-1.667,0.753-3.305,1.505-4.942,2.2c-0.816,0.354-1.624,0.705-2.427,1.054
		c-0.784,0.385-1.56,0.767-2.331,1.145c-1.544,0.757-3.059,1.5-4.541,2.228c-2.944,1.509-5.675,3.127-8.363,4.528
		c-2.609,1.546-5.087,3.013-7.41,4.391c-2.274,1.469-4.37,2.899-6.368,4.151c-1.009,0.616-1.918,1.281-2.801,1.904
		c-0.885,0.623-1.727,1.218-2.527,1.783c-3.228,2.23-5.67,4.124-7.365,5.391c-1.692,1.272-2.596,1.951-2.596,1.951l-0.492-0.519
		c0,0,0.826-0.768,2.377-2.207c1.566-1.422,3.77-3.617,6.828-6.115c0.755-0.638,1.549-1.309,2.384-2.014
		c0.833-0.703,1.692-1.454,2.65-2.161c1.886-1.448,3.93-3.015,6.11-4.688c2.256-1.57,4.657-3.241,7.187-5.002
		c2.618-1.624,5.33-3.405,8.238-5.13c1.472-0.831,2.972-1.681,4.503-2.546c0.766-0.433,1.539-0.869,2.319-1.31
		c0.798-0.404,1.604-0.813,2.417-1.224c1.627-0.82,3.28-1.653,4.961-2.501c1.688-0.827,3.453-1.56,5.214-2.361
		c3.506-1.653,7.251-3.002,11.03-4.494c1.896-0.732,3.866-1.32,5.825-1.997c0.985-0.329,1.973-0.66,2.965-0.991
		c0.988-0.348,2.015-0.585,3.024-0.886c2.032-0.571,4.081-1.146,6.145-1.728c2.087-0.482,4.192-0.968,6.309-1.455
		c1.061-0.233,2.117-0.506,3.189-0.709c1.074-0.191,2.152-0.383,3.233-0.575s2.167-0.385,3.253-0.578
		c1.086-0.189,2.171-0.407,3.272-0.523c2.199-0.281,4.407-0.562,6.619-0.843c1.104-0.162,2.22-0.249,3.337-0.328l3.357-0.259
		l3.361-0.26c1.123-0.099,2.24-0.08,3.357-0.125c2.247-0.062,4.496-0.123,6.745-0.184c2.249,0.061,4.5,0.121,6.746,0.182
		c1.125,0.046,2.249,0.027,3.369,0.126l3.357,0.259l3.348,0.259c1.118,0.079,2.231,0.166,3.335,0.328
		c2.215,0.281,4.42,0.563,6.619,0.842c1.102,0.117,2.188,0.335,3.272,0.525c1.088,0.192,2.172,0.385,3.253,0.577
		s2.157,0.385,3.234,0.575c1.071,0.203,2.128,0.477,3.188,0.709c2.116,0.488,4.219,0.974,6.309,1.456
		c2.063,0.58,4.112,1.156,6.145,1.728c1.01,0.3,2.036,0.538,3.024,0.886c0.992,0.331,1.979,0.661,2.965,0.99
		c1.959,0.678,3.93,1.267,5.825,1.998c3.779,1.492,7.524,2.841,11.03,4.494c1.761,0.802,3.525,1.534,5.214,2.361
		c1.681,0.847,3.334,1.682,4.963,2.502c0.812,0.411,1.617,0.818,2.415,1.223c0.78,0.44,1.554,0.878,2.32,1.31
		c1.53,0.866,3.031,1.715,4.502,2.547c2.908,1.724,5.62,3.506,8.238,5.13c2.529,1.761,4.929,3.432,7.187,5.002
		c2.181,1.673,4.225,3.239,6.11,4.687c0.956,0.707,1.818,1.459,2.652,2.163c0.835,0.706,1.631,1.378,2.386,2.017
		c3.063,2.503,5.255,4.689,6.822,6.109c1.549,1.438,2.372,2.204,2.372,2.204L261.172,167.271z"/>
</g>
</svg>
