<?xml version="1.0" encoding="utf-8"?>
<!-- Generator: Adobe Illustrator 16.0.3, SVG Export Plug-In . SVG Version: 6.00 Build 0)  -->
<!DOCTYPE svg PUBLIC "-//W3C//DTD SVG 1.1//EN" "http://www.w3.org/Graphics/SVG/1.1/DTD/svg11.dtd">
<svg version="1.1" xmlns="http://www.w3.org/2000/svg" xmlns:xlink="http://www.w3.org/1999/xlink" x="0px" y="0px" width="217px"
	 height="96px" viewBox="0 0 217 96" enable-background="new 0 0 217 96" xml:space="preserve">
<g id="_x5F_guide">
</g>
<g id="guides">
</g>
<g id="_x5F_work" display="none">
</g>
<g id="outline">
</g>
<g id="outline_x5F_white" display="none">
</g>
<g id="logo">
	<g>
		<path d="M213.738,0.84c-2.598,0-5.416,3.575-7.101,5.71c-0.227,0.288-0.428,0.542-0.599,0.749
			c-9.099,11.088-15.447,24.41-17.876,37.509c-0.913,4.923-1.153,9.769-0.716,14.403c0.321,3.417,0.86,9.137,4.419,11.704
			c1.233,0.888,2.639,1.337,4.178,1.337c2.77,0,5.853-1.521,8.248-4.067c2.27-2.412,3.533-5.358,3.381-7.881l-0.026-0.439
			l-0.438-0.029c-1.103-0.074-2.198,0.452-3.253,0.959c-0.543,0.26-1.056,0.505-1.531,0.652c-0.995,0.307-2.296,0.659-3.52,0.659
			c-1.62,0-2.774-0.634-3.528-1.939c-1.956-3.402-1.209-8.155-0.609-11.974l0.11-0.706c2.09-13.5,8.212-26.108,17.241-35.504
			c0.24-0.251,0.521-0.527,0.822-0.824c2.095-2.066,5.263-5.189,3.631-8.273C215.852,1.529,214.898,0.84,213.738,0.84z"/>
		<path d="M184.422,55.593c-0.317-0.217-0.628-0.327-0.923-0.327c-1.008,0-1.412,1.158-1.706,2.002
			c-0.07,0.204-0.138,0.396-0.206,0.553c-1.272,2.865-4.994,7.984-7.882,7.983l-0.114-0.002c-0.966-0.047-1.676-0.412-2.171-1.117
			c-1.914-2.725-0.073-9.455,0.538-11.452c1.686-5.509,3.76-10.76,5.997-15.184c2.396-4.715,5.672-10.851,9.774-16.495
			c0.82-1.13,1.712-2.272,2.574-3.377c2.703-3.464,5.498-7.046,6.977-11.243c1.098-3.095,0.622-5.182-1.414-6.201
			c-0.264-0.135-0.556-0.202-0.866-0.202c-2.245,0-5.113,3.497-7.879,7.279c-0.246,0.336-0.45,0.615-0.601,0.809
			c-3.244,4.191-5.991,8.813-8.671,13.323c-2.476,4.157-4.601,8.699-6.563,12.993c-3.4,7.417-5.635,14.176-7.035,21.273
			c-0.819,4.174-1.39,9.498,1.497,13.656c1.37,1.975,3.396,3.019,5.855,3.019h0.001c4.448,0,9.178-3.39,11.01-6.53
			c1.334-2.287,2.212-4.776,2.472-7.016l0.028-0.245C185.236,58.045,185.442,56.291,184.422,55.593z"/>
		<path d="M160.616,48.171c-1.636,1.599-2.814,3.598-3.954,5.531c-0.642,1.087-1.305,2.212-2.033,3.232
			c-3.208,4.485-8.287,9.833-14.265,9.833c-0.637,0-1.277-0.063-1.906-0.187c-1.772-0.353-3.813-1.539-5.077-2.952
			c-3.934-4.378-1.692-11.388-0.006-15.175c2.716-6.068,5.666-10.167,9.281-12.901c1.257-0.953,5.449-3.672,8.132-3.672
			c0.585,0,1.048,0.137,1.375,0.402c2.304,1.891-0.503,6.357-1.853,8.504l-0.181,0.289c-2.337,3.711-5.525,6.613-9.748,8.872
			c-0.165,0.088-0.477,0.226-0.868,0.399c-3.17,1.406-4.865,2.379-4.749,3.495c0.087,0.83,1.118,1.141,1.884,1.303
			c0.401,0.085,0.836,0.128,1.293,0.128c3.53,0,7.92-2.458,11.747-4.862c3.887-2.43,9.838-9.021,10.273-15.452
			c0.208-3.085-0.885-5.647-3.251-7.616c-1.639-1.359-3.62-2.048-5.889-2.048c-3.937,0-7.654,2.058-9.521,3.284
			c-10.57,6.951-15.813,15.845-16.499,27.988c-0.386,6.897,4.442,13.751,10.765,15.278c1.416,0.34,2.889,0.514,4.379,0.514
			c7.937,0,15.988-4.851,20.037-12.071c1.505-2.688,2.441-5.474,2.785-8.277c0.125-0.97,0.342-3.312-0.35-4.099
			C161.994,47.427,161.325,47.476,160.616,48.171z"/>
		<path d="M113.333,36.71l0.404-1.18c0.547-0.006,1.087-0.006,1.624-0.006c0.444,0.004,0.911,0.026,1.39,0.048
			c0.57,0.027,1.156,0.055,1.74,0.055c1.392,0,3.167-0.139,4.57-1.216c0.943-0.733,1.382-1.783,1.201-2.882
			c-0.193-1.174-1.063-2.164-2.274-2.584c-1.667-0.572-3.531-0.839-5.866-0.843c0.507-1.564,1.115-3.323,1.867-5.029
			c0.597-1.349,1.467-3.84,0.587-5.373c-0.396-0.692-1.078-1.097-2.021-1.203c-0.893-0.109-2.165,0.502-2.784,1.097
			c-2.953,2.876-4.145,6.798-5.065,10.613c-0.296-0.006-0.592-0.012-0.889-0.012c-1.619,0-3.464,0.125-4.863,1.042
			c-1.313,0.852-2.321,2.907-1.706,4.383c0.832,1.974,3.05,1.974,4.374,1.974l0.631-0.002l0.321,0.002
			c0.103,0.004,0.205,0.006,0.309,0.008l-0.296,1.123c-2.42,9.158-5.164,19.539-2.371,28.84c0.679,2.285,2.466,5.205,4.569,6.363
			c1.244,0.691,2.586,1.042,3.987,1.042c2.625,0,5.295-1.25,7.324-3.427c1.272-1.369,2.227-3.051,3.001-5.297
			c0.582-1.696,0.69-2.773,0.341-3.39c-0.297-0.518-0.665-0.782-1.093-0.782c-0.813,0-1.396,0.992-1.864,1.789
			c-0.136,0.23-0.253,0.435-0.349,0.556c-0.863,1.062-2.593,2.227-3.994,2.336c-0.189,0.015-0.381,0.022-0.571,0.022
			c-2.21,0-4.054-0.895-4.932-2.397c-1.738-2.942-1.592-7.125-1.33-10.016C109.788,47.037,111.59,41.787,113.333,36.71z"/>
		<path d="M79.921,21.491c3.579,0,6.49-2.915,6.49-6.497c0-3.583-2.911-6.498-6.49-6.498c-3.578,0-6.489,2.915-6.489,6.498
			C73.432,18.576,76.343,21.491,79.921,21.491z"/>
		<path d="M45.399,52.211c0.562,3.768,2.354,7.267,5.325,10.396c2.493,2.622,6.259,6.585,10.094,7.634
			c0.453,0.124,0.896,0.188,1.317,0.188c1.345,0,2.469-0.662,3.009-1.771c0.612-1.26,0.364-2.844-0.644-4.132
			c-0.884-1.144-2.453-2.025-3.973-2.878c-0.766-0.431-1.488-0.836-2.054-1.242c-2.463-1.758-5.767-4.565-6.042-8.631
			c-0.312-4.851,3.256-9.319,4.803-11.016c1.809-1.982,4.089-3.818,6.78-5.458c0.212-0.13,0.458-0.268,0.723-0.419
			c1.937-1.104,4.864-2.771,4.131-5.343c-0.374-1.307-1.252-1.997-2.537-1.997c-1.894,0-4.78,1.559-8.581,4.635
			C52.633,36.308,44.063,43.223,45.399,52.211z"/>
		<path d="M39.795,73.857c0.925,2.135,2.81,4.289,4.938,4.289c0.979,0,1.896-0.45,2.731-1.336c1.647-1.741,0.875-3.496,0.194-5.042
			c-0.174-0.396-0.35-0.791-0.483-1.188c-2.123-6.302-2.981-13.254-2.551-20.662c0.224-3.83,1.32-7.606,2.382-11.259
			c0.204-0.703,0.407-1.405,0.606-2.107c1.345-4.723,2.942-9.286,4.182-12.731l0.629-1.751c1.121-3.123,2.279-6.352,3.623-9.444
			c0.854-1.961,1.692-3.669,2.563-5.222c0.164-0.289,0.346-0.585,0.532-0.887c0.749-1.214,1.598-2.591,1.58-4.095
			C60.696,0.882,59.723,0,58.054,0c-1.371,0-3.038,0.593-4.017,1.149c-0.233,0.138-0.445,0.267-0.629,0.399
			c-2.264,1.565-3.501,4.245-4.594,6.608l-0.417,0.896c-2.493,5.28-4.248,10.919-5.946,16.372c-0.373,1.199-0.746,2.396-1.126,3.59
			c-2.125,6.635-3.494,12.51-4.185,17.962C35.78,57.583,36.673,66.627,39.795,73.857z"/>
		<path d="M101.188,51.098c-0.807,0-1.425,0.994-2.148,2.292c-0.149,0.269-0.276,0.5-0.372,0.634
			c-2.024,2.803-4.272,5.62-7.502,6.55c-2.335,0.68-4.202,0.263-5.546-1.254c-2.689-3.038-2.734-9.431-2.337-12.731
			c0.141-1.196,0.346-2.428,0.545-3.618c0.312-1.867,0.634-3.795,0.727-5.694c0.102-2.287,0.206-4.651-0.534-6.925
			c-0.594-1.815-2.288-3.195-4.532-3.691l-0.178-0.039c-0.476-0.107-1.195-0.268-1.838-0.268c-0.52,0-0.905,0.105-1.19,0.326
			c-1.141,0.928-0.596,2.423-0.198,3.514c0.101,0.275,0.194,0.532,0.247,0.748c1.212,5.144,0.509,10.459-0.386,15.907
			c-1.232,7.545-3.261,17.21-8.041,25.029c-2.872,4.708-6.357,9.979-11.398,12.943c-3,1.75-6.305,2.994-8.838,3.324
			c-0.764,0.1-1.55,0.15-2.336,0.15c-4.095,0-8.046-1.34-10.839-3.676c-8.397-7.031-8.748-18.23-8.21-24.28
			c0.205-2.272,0.459-4.479,0.755-6.56c1.523-10.417,4.481-18.508,9.313-25.467c0.478-0.688,0.978-1.566,0.616-2.257
			c-0.348-0.666-1.26-0.757-2.192-0.757c-0.258,0-0.536,0.008-0.835,0.021c-0.313,0.016-0.612,0.02-0.897,0.025
			c-1.542,0.025-2.873,0.047-3.979,1.511c-1.909,2.521-2.848,5.225-3.839,8.088c-0.159,0.46-0.32,0.925-0.486,1.392
			c-0.469,1.316-0.915,2.653-1.361,3.997c-1.577,4.736-3.208,9.633-5.983,13.776c-1.394,2.084-3.751,4.848-7.051,6.182
			c-0.784,0.319-1.666,0.494-2.479,0.494c-0.796,0-1.927-0.166-2.8-0.962c-0.216-0.195-0.402-0.679-0.566-1.107
			c-0.295-0.76-0.626-1.622-1.428-1.622c-0.474,0-0.937,0.314-1.505,1.018C0.798,59.065,0.345,61,0.21,61.894
			c-0.649,4.648,0.396,7.733,3.024,8.921c2.804,1.268,6.271,0.674,10.105-1.731c2.759-1.727,4.83-4.119,6.408-6.291
			c-0.079,2.396,0.047,5.012,0.379,7.943c0.668,5.883,3.061,16.558,11.571,21.946c2.272,1.438,5.095,2.525,7.547,2.91
			C40.922,95.858,42.712,96,44.42,96c1.294,0,2.532-0.08,3.679-0.236c7.68-1.06,14.934-5.344,20.427-12.063
			c5.239-6.393,8.749-13.002,10.463-19.693c0.403,2.724,1.261,5.634,3.202,7.5c0.714,0.689,1.63,1.039,2.726,1.039
			c2.623,0,5.754-2.06,7.386-3.287c3.062-2.289,5.797-5.641,7.911-9.695c0.031-0.061,2.972-6.184,1.935-7.929
			C101.946,51.297,101.613,51.105,101.188,51.098z"/>
		<path d="M33.952,21.491c3.578,0,6.49-2.915,6.49-6.497c0-3.583-2.912-6.498-6.49-6.498s-6.49,2.915-6.49,6.498
			C27.462,18.576,30.374,21.491,33.952,21.491z"/>
	</g>
</g>
</svg>
