<?xml version="1.0" encoding="utf-8"?>
<!-- Generator: Adobe Illustrator 16.0.3, SVG Export Plug-In . SVG Version: 6.00 Build 0)  -->
<!DOCTYPE svg PUBLIC "-//W3C//DTD SVG 1.1//EN" "http://www.w3.org/Graphics/SVG/1.1/DTD/svg11.dtd">
<svg version="1.1" xmlns="http://www.w3.org/2000/svg" xmlns:xlink="http://www.w3.org/1999/xlink" x="0px" y="0px" width="700px"
	 height="700px" viewBox="0 0 700 700" enable-background="new 0 0 700 700" xml:space="preserve">
<g id="_x5F_guide">
</g>
<g id="guides">
</g>
<g id="_x5F_work" display="none">
</g>
<g id="outline">
	<g>
		<circle fill="#8BD7E4" cx="350.538" cy="350" r="350"/>
	</g>
	<g>
		<path class="a" fill="#FFFFFF" d="M455.308,263.051c13.644,0,24.738-11.1,24.738-24.744s-11.095-24.75-24.738-24.75
			c-13.645,0-24.757,11.105-24.757,24.75S441.663,263.051,455.308,263.051z"/>
		<path fill="#FFFFFF" d="M323.663,380.061c2.138,14.357,8.975,27.682,20.301,39.605c9.514,9.982,23.87,25.076,38.493,29.078
			c1.732,0.477,3.419,0.713,5.023,0.713c5.127,0,9.415-2.52,11.472-6.744c2.341-4.797,1.396-10.834-2.445-15.734
			c-3.372-4.357-9.362-7.717-15.162-10.963c-2.914-1.645-5.672-3.186-7.821-4.738c-9.386-6.691-21.993-17.381-23.041-32.873
			c-1.183-18.471,12.409-35.498,18.313-41.959c6.895-7.555,15.591-14.535,25.852-20.787c0.805-0.498,1.75-1.02,2.758-1.605
			c7.387-4.193,18.551-10.539,15.753-20.342c-1.426-4.982-4.78-7.602-9.67-7.602c-7.225,0-18.227,5.928-32.723,17.648
			C351.247,319.488,318.57,345.832,323.663,380.061z"/>
		<path fill="#FFFFFF" d="M302.296,462.512c3.522,8.139,10.707,16.338,18.829,16.338c3.737,0,7.236-1.715,10.411-5.088
			c6.292-6.633,3.35-13.314,0.748-19.205c-0.666-1.508-1.333-3.014-1.843-4.531c-8.1-23.998-11.373-50.48-9.722-78.701
			c0.846-14.59,5.023-28.963,9.067-42.873c0.788-2.678,1.559-5.359,2.323-8.031c5.127-17.994,11.217-35.369,15.944-48.492
			l2.393-6.676c4.275-11.893,8.696-24.188,13.823-35.967c3.251-7.473,6.449-13.986,9.769-19.889
			c0.626-1.107,1.315-2.236,2.028-3.379c2.85-4.629,6.089-9.877,6.02-15.602c-0.093-5.869-3.807-9.219-10.174-9.219
			c-5.227,0-11.582,2.254-15.313,4.375c-0.892,0.521-1.691,1.008-2.393,1.518c-8.638,5.969-13.349,16.17-17.52,25.174l-1.594,3.412
			c-9.502,20.111-16.199,41.594-22.677,62.357c-1.413,4.572-2.833,9.125-4.293,13.674c-8.1,25.271-13.319,47.658-15.956,68.424
			C286.983,400.529,290.384,434.973,302.296,462.512z"/>
		<path fill="#FFFFFF" d="M536.39,375.826c-3.07,0-5.423,3.783-8.187,8.73c-0.573,1.02-1.054,1.9-1.419,2.41
			c-7.718,10.684-16.298,21.408-28.604,24.947c-8.905,2.596-16.025,1.002-21.147-4.773c-10.26-11.564-10.423-35.928-8.916-48.488
			c0.533-4.559,1.321-9.252,2.074-13.789c1.199-7.107,2.422-14.455,2.775-21.686c0.394-8.713,0.782-17.717-2.04-26.373
			c-2.259-6.918-8.719-12.172-17.276-14.066l-0.684-0.145c-1.813-0.406-4.554-1.014-6.999-1.014c-1.993,0-3.465,0.393-4.548,1.24
			c-4.352,3.533-2.271,9.223-0.753,13.383c0.382,1.049,0.741,2.027,0.938,2.844c4.623,19.596,1.946,39.85-1.472,60.598
			c-4.699,28.736-12.434,65.555-30.654,95.334c-10.956,17.932-24.247,38.008-43.471,49.299
			c-11.437,6.662-24.038,11.396-33.707,12.66c-2.903,0.381-5.898,0.572-8.899,0.572c-15.608,0-30.684-5.109-41.332-13.996
			c-32.022-26.785-33.354-69.443-31.298-92.492c0.776-8.654,1.75-17.057,2.874-24.982c5.805-39.68,17.085-70.496,35.509-97.004
			c1.825-2.617,3.726-5.961,2.347-8.604c-1.315-2.525-4.809-2.879-8.354-2.879c-0.99,0-2.051,0.041-3.187,0.082
			c-1.188,0.057-2.329,0.074-3.424,0.098c-5.875,0.098-10.95,0.174-15.174,5.754c-7.276,9.6-10.857,19.906-14.635,30.805
			c-0.603,1.756-1.229,3.527-1.854,5.307c-1.796,5.006-3.493,10.104-5.19,15.221c-6.02,18.041-12.242,36.691-22.815,52.473
			c-5.319,7.938-14.311,18.465-26.883,23.551c-3.001,1.211-6.361,1.873-9.456,1.873c-3.035,0-7.352-0.627-10.672-3.656
			c-0.822-0.742-1.535-2.59-2.167-4.219c-1.118-2.896-2.387-6.182-5.445-6.182c-1.796,0-3.569,1.205-5.736,3.883
			c-2.914,3.633-4.646,10.996-5.162,14.408c-2.479,17.705,1.507,29.455,11.535,33.975c10.684,4.832,23.911,2.566,38.534-6.582
			c10.516-6.582,18.418-15.695,24.426-23.969c-0.295,9.125,0.186,19.09,1.455,30.25c2.549,22.402,11.668,63.074,44.118,83.596
			c8.674,5.471,19.433,9.617,28.777,11.084c6.396,1.02,13.228,1.553,19.733,1.553c4.937,0,9.658-0.301,14.032-0.893
			c29.281-4.043,56.94-20.371,77.891-45.949c19.977-24.357,33.354-49.537,39.896-75.018c1.535,10.377,4.809,21.467,12.207,28.568
			c2.718,2.619,6.223,3.963,10.4,3.963c9.999,0,21.935-7.855,28.157-12.525c11.68-8.713,22.108-21.482,30.167-36.924
			c0.128-0.236,11.339-23.557,7.382-30.201C539.293,376.59,538.018,375.854,536.39,375.826z"/>
		<path fill="#FFFFFF" d="M280.014,263.051c13.644,0,24.744-11.1,24.744-24.744s-11.101-24.75-24.744-24.75
			c-13.65,0-24.745,11.105-24.745,24.75S266.363,263.051,280.014,263.051z"/>
		<path fill="#FFFFFF" d="M351.056,101.836c137.432,0,249.239,111.807,249.239,249.238c0,137.434-111.808,249.24-249.239,249.24
			c-137.433,0-249.239-111.807-249.239-249.24C101.816,213.643,213.623,101.836,351.056,101.836 M351.056,84.037
			c-147.484,0-267.037,119.553-267.037,267.037s119.553,267.037,267.037,267.037s267.037-119.553,267.037-267.037
			S498.54,84.037,351.056,84.037L351.056,84.037z"/>
	</g>
</g>
<g id="outline_x5F_white" display="none">
</g>
</svg>
